<svg class="logo" aria-hidden="true" focusable="false" xmlns="http://www.w3.org/2000/svg" viewBox="0 0 129.37 57.4"><path class="cls-1" d="m58.3 20.34-2.38-8.82-2.41 8.82q-.28 1-.45 1.44a2.13 2.13 0 0 1-.58.78 1.66 1.66 0 0 1-1.09.35 1.88 1.88 0 0 1-.91-.21 1.44 1.44 0 0 1-.57-.58 3.29 3.29 0 0 1-.37-.89l-.25-1-2.44-9.9A5.46 5.46 0 0 1 46.62 9 1.25 1.25 0 0 1 47 8a1.28 1.28 0 0 1 1-.39 1.1 1.1 0 0 1 1.09.52 5.94 5.94 0 0 1 .49 1.51l1.93 8.59 2.16-8a10 10 0 0 1 .43-1.41 1.86 1.86 0 0 1 .58-.78 2.12 2.12 0 0 1 2.35 0 2.09 2.09 0 0 1 .57.8c.11.29.25.76.43 1.43l2.18 8 1.96-8.57a5.68 5.68 0 0 1 .27-1 1.52 1.52 0 0 1 .43-.7 1.13 1.13 0 0 1 .88-.3 1.39 1.39 0 0 1 1 .38 1.32 1.32 0 0 1 .41 1 6.74 6.74 0 0 1-.22 1.32l-2.45 9.9q-.27 1-.42 1.47a2.11 2.11 0 0 1-.56.82 1.94 1.94 0 0 1-2.21 0 1.73 1.73 0 0 1-.57-.77c-.09-.3-.24-.82-.43-1.48ZM76.85 10.25h-6.71v3.61h6.18a1.46 1.46 0 0 1 1 .3 1.17 1.17 0 0 1 0 1.63 1.52 1.52 0 0 1-1 .32h-6.18v4.18h6.94a1.47 1.47 0 0 1 1.06.33 1.2 1.2 0 0 1 0 1.71 1.56 1.56 0 0 1-1.06.33H69a2 2 0 0 1-1.4-.43 1.93 1.93 0 0 1-.42-1.4V9.77a2.26 2.26 0 0 1 .19-1 1.09 1.09 0 0 1 .59-.6 2.4 2.4 0 0 1 1-.18h7.87a1.48 1.48 0 0 1 1.06.31 1.17 1.17 0 0 1 0 1.65 1.55 1.55 0 0 1-1.04.3ZM90.28 21l-.7-1.84h-6l-.7 1.84a7 7 0 0 1-.7 1.49 1.13 1.13 0 0 1-1 .39 1.41 1.41 0 0 1-1-.41 1.26 1.26 0 0 1-.43-.93 1.89 1.89 0 0 1 .1-.63c.07-.21.18-.51.33-.89L84 10.5c.1-.28.23-.61.38-1a4.39 4.39 0 0 1 .48-1 1.85 1.85 0 0 1 .68-.62 2 2 0 0 1 1-.23 1.94 1.94 0 0 1 1.68.84 4.38 4.38 0 0 1 .43.8c.11.28.26.66.44 1.14l3.85 9.49a4.78 4.78 0 0 1 .45 1.58 1.33 1.33 0 0 1-.43.93 1.47 1.47 0 0 1-1 .43 1.35 1.35 0 0 1-.6-.13 1.09 1.09 0 0 1-.42-.34 3.08 3.08 0 0 1-.37-.66 3.76 3.76 0 0 0-.29-.73Zm-5.9-4.08h4.39l-2.22-6.07ZM96.78 9.65l3.33 9.87 3.34-9.94c.18-.52.31-.88.4-1.09a1.29 1.29 0 0 1 .43-.55 1.19 1.19 0 0 1 .82-.24 1.31 1.31 0 0 1 .71.19 1.52 1.52 0 0 1 .51.5 1.4 1.4 0 0 1 .18.64 3.93 3.93 0 0 1-.06.48c0 .16-.09.33-.15.5l-.18.51-3.56 9.61c-.13.37-.25.72-.38 1.05a5.92 5.92 0 0 1-.44.87 2 2 0 0 1-2.67.62 1.74 1.74 0 0 1-.67-.62 4.57 4.57 0 0 1-.45-.88c-.12-.32-.25-.67-.38-1L94 10.65q-.09-.27-.18-.51a3.86 3.86 0 0 1-.17-.55 2.12 2.12 0 0 1-.06-.49 1.26 1.26 0 0 1 .41-.93 1.31 1.31 0 0 1 1-.42 1.2 1.2 0 0 1 1.08.46 6.56 6.56 0 0 1 .7 1.44ZM111.71 9.5v10.71h6a1.56 1.56 0 0 1 1.11.35 1.19 1.19 0 0 1 .39.89 1.12 1.12 0 0 1-.38.87 1.67 1.67 0 0 1-1.12.33h-7.2a1.58 1.58 0 0 1-1.81-1.28 1.4 1.4 0 0 1 0-.54V9.5a1.92 1.92 0 0 1 .41-1.35 1.32 1.32 0 0 1 1.07-.45 1.43 1.43 0 0 1 1.09.44 2.05 2.05 0 0 1 .44 1.36ZM121.85 21.09v-4.66l-3.59-5.57a8.69 8.69 0 0 1-.67-1.18 1.74 1.74 0 0 1-.2-.73 1.11 1.11 0 0 1 .4-.88 1.32 1.32 0 0 1 1-.37 1.17 1.17 0 0 1 .93.34 10.16 10.16 0 0 1 .94 1.38l2.75 4.47 2.78-4.47.42-.69a3.39 3.39 0 0 1 .39-.53 1.28 1.28 0 0 1 .46-.37 1.14 1.14 0 0 1 .61-.13 1.3 1.3 0 0 1 .94.36 1.16 1.16 0 0 1 .37.85 2 2 0 0 1-.19.78 10.1 10.1 0 0 1-.65 1.09l-3.68 5.65v4.66a2 2 0 0 1-.42 1.37 1.47 1.47 0 0 1-1.08.45 1.38 1.38 0 0 1-1.07-.45 2 2 0 0 1-.44-1.37Z"/><rect class="cls-1" x="31.37" y="30.95" width="25.59" height="25.59" rx="3.19"/><rect class="cls-2" x="1.76" y="1.51" width="38.54" height="38.54" rx="3.19"/><path class="cls-1" d="M36.75 41.33H4.58A4.59 4.59 0 0 1 0 36.74V4.58A4.59 4.59 0 0 1 4.58 0h32.17a4.59 4.59 0 0 1 4.58 4.58v32.16a4.59 4.59 0 0 1-4.58 4.59ZM4.58 2.79a1.8 1.8 0 0 0-1.79 1.79v32.16a1.8 1.8 0 0 0 1.79 1.8h32.17a1.8 1.8 0 0 0 1.79-1.8V4.58a1.8 1.8 0 0 0-1.79-1.79Z"/><path class="cls-1" d="M53.06 57.4H33.85a4.59 4.59 0 0 1-4.58-4.59V33.6a4.59 4.59 0 0 1 4.58-4.6h19.21a4.59 4.59 0 0 1 4.59 4.58v19.23a4.6 4.6 0 0 1-4.59 4.59ZM33.85 31.81a1.79 1.79 0 0 0-1.79 1.79v19.21a1.8 1.8 0 0 0 1.79 1.8h19.21a1.8 1.8 0 0 0 1.8-1.8V33.6a1.8 1.8 0 0 0-1.8-1.79Z"/><path class="cls-3" d="M37.15 42.66h11.24a.82.82 0 0 1 .82.82.82.82 0 0 1-.82.82H37.15a.82.82 0 0 1-.82-.82.81.81 0 0 1 .82-.82Z"/><path class="cls-3" d="M48.39 44.67H37.15a1.2 1.2 0 1 1 0-2.39h11.24a1.2 1.2 0 0 1 0 2.39ZM37.15 43a.45.45 0 1 0 0 .89h11.24a.45.45 0 0 0 0-.89Z"/><path class="cls-3" d="M43.22 49.58a.82.82 0 0 1 0-1.16l4.67-4.34a.84.84 0 0 0 0-1.18l-4.67-4.34a.82.82 0 0 1-.06-1.16.8.8 0 0 1 1.15 0l6 5.54a.82.82 0 0 1 0 1.15l-6 5.54a.83.83 0 0 1-1.16-.08Z"/><path class="cls-3" d="M43.84 50.23h-.08a1.17 1.17 0 0 1-.82-.4 1.19 1.19 0 0 1 .06-1.69l4.67-4.34a.5.5 0 0 0 .14-.31.49.49 0 0 0-.13-.33L43 38.81a1.23 1.23 0 0 1-.39-.83 1.2 1.2 0 0 1 .32-.86 1.21 1.21 0 0 1 .85-.36 1.18 1.18 0 0 1 .84.35l6 5.53a1.2 1.2 0 0 1 .06 1.69l-6.06 5.6a1.18 1.18 0 0 1-.78.3Zm-.35-.91a.48.48 0 0 0 .28.11.43.43 0 0 0 .32-.11l6-5.53a.45.45 0 0 0 0-.65l-6-5.54a.47.47 0 0 0-.32-.14.46.46 0 0 0-.31.13.47.47 0 0 0-.11.31.46.46 0 0 0 .15.31l4.67 4.34a1.25 1.25 0 0 1 .38.9 1.22 1.22 0 0 1-.38.85l-4.67 4.34a.45.45 0 0 0-.01.68Z"/><path class="cls-1" d="M9.34 10.21a1.39 1.39 0 0 1 1.8.81L18 28.92a1.41 1.41 0 0 1-.81 1.81 1.4 1.4 0 0 1-1.8-.81L8.53 12a1.4 1.4 0 0 1 .81-1.79Z"/><path class="cls-1" d="m15.42 29 4.4-11a1.39 1.39 0 0 1 1.82-.77 1.4 1.4 0 0 1 .78 1.77L18 30a1.4 1.4 0 0 1-2.6 0 1.41 1.41 0 0 1 .02-1Z"/><path class="cls-1" d="M18.11 10.51a1.4 1.4 0 0 1 1.8.81l6.85 17.91A1.42 1.42 0 0 1 26 31a1.41 1.41 0 0 1-1.81-.81l-6.88-17.87a1.4 1.4 0 0 1 .8-1.81Z"/><path class="cls-1" d="m24.18 29.26 4.4-11a1.4 1.4 0 0 1 1.81-.79 1.4 1.4 0 0 1 .78 1.81l-4.41 11a1.4 1.4 0 0 1-2.6 0 1.39 1.39 0 0 1 .02-1.02Z"/></svg>
