<svg class="logo mono" aria-hidden="true" focusable="false" xmlns="http://www.w3.org/2000/svg" viewBox="0 0 129.31 57.39"><path class="cls-1" d="m58.23 20.38-2.38-8.82-2.41 8.82q-.3 1-.45 1.44a2.1 2.1 0 0 1-.57.78 1.7 1.7 0 0 1-1.1.35 1.88 1.88 0 0 1-.91-.21 1.51 1.51 0 0 1-.57-.58 3 3 0 0 1-.36-.89c-.1-.34-.18-.66-.26-1l-2.44-9.9a5.44 5.44 0 0 1-.22-1.32 1.21 1.21 0 0 1 .4-1 1.28 1.28 0 0 1 1-.39 1.1 1.1 0 0 1 1.09.52 6 6 0 0 1 .5 1.51l1.92 8.59 2.16-8a10 10 0 0 1 .43-1.41 1.87 1.87 0 0 1 .61-.78A2.12 2.12 0 0 1 57 8.1a2.09 2.09 0 0 1 .57.8c.11.29.25.76.44 1.43l2.17 8 1.93-8.59a5.68 5.68 0 0 1 .27-1 1.52 1.52 0 0 1 .43-.68 1.16 1.16 0 0 1 .89-.3 1.34 1.34 0 0 1 1 .38 1.32 1.32 0 0 1 .41 1 6.74 6.74 0 0 1-.22 1.32l-2.45 9.9q-.18.74-.42 1.47a2.11 2.11 0 0 1-.56.82 1.94 1.94 0 0 1-2.21 0 1.79 1.79 0 0 1-.57-.77 15 15 0 0 1-.45-1.5ZM76.78 10.29h-6.71v3.61h6.18a1.46 1.46 0 0 1 1 .3 1.17 1.17 0 0 1 0 1.63 1.52 1.52 0 0 1-1 .32h-6.18v4.18H77a1.45 1.45 0 0 1 1.06.36 1.2 1.2 0 0 1 0 1.71 1.56 1.56 0 0 1-1.06.33h-8.1a2 2 0 0 1-1.4-.43 1.93 1.93 0 0 1-.42-1.4V9.81a2.26 2.26 0 0 1 .19-1 1.12 1.12 0 0 1 .59-.6 2.4 2.4 0 0 1 1-.18h7.87a1.48 1.48 0 0 1 1.06.31 1.17 1.17 0 0 1 0 1.65 1.55 1.55 0 0 1-1.01.3ZM90.21 21l-.7-1.84h-6l-.7 1.88a7 7 0 0 1-.7 1.49 1.13 1.13 0 0 1-1 .39 1.41 1.41 0 0 1-1-.41 1.29 1.29 0 0 1-.43-.93 1.89 1.89 0 0 1 .1-.63c.07-.21.18-.51.33-.89l3.77-9.55c.1-.28.23-.61.38-1a4.39 4.39 0 0 1 .48-1 1.85 1.85 0 0 1 .68-.62 2.4 2.4 0 0 1 2.06 0 1.89 1.89 0 0 1 .68.61 4.38 4.38 0 0 1 .43.8c.11.28.26.66.44 1.14L92.88 20a4.78 4.78 0 0 1 .45 1.58 1.33 1.33 0 0 1-.43.93 1.41 1.41 0 0 1-1 .43 1.35 1.35 0 0 1-.6-.13 1.17 1.17 0 0 1-.42-.34 2.67 2.67 0 0 1-.36-.66c-.11-.29-.22-.55-.31-.81Zm-5.9-4h4.36l-2.21-6.07ZM96.67 9.69l3.33 9.87 3.34-9.94c.18-.52.31-.88.4-1.09a1.29 1.29 0 0 1 .43-.55 1.19 1.19 0 0 1 .82-.24 1.31 1.31 0 0 1 .71.19 1.36 1.36 0 0 1 .51.5 1.41 1.41 0 0 1 .19.64 3.93 3.93 0 0 1-.06.48 1.54 1.54 0 0 1-.16.5l-.18.51-3.56 9.61c-.13.37-.25.72-.38 1a5.92 5.92 0 0 1-.44.87 2 2 0 0 1-2.67.62 1.82 1.82 0 0 1-.67-.62 4 4 0 0 1-.44-.88c-.13-.32-.26-.67-.39-1L94 10.69l-.18-.51a2.29 2.29 0 0 1-.16-.55 1.66 1.66 0 0 1-.07-.49 1.26 1.26 0 0 1 .41-.93 1.38 1.38 0 0 1 1-.42 1.18 1.18 0 0 1 1 .46 6 6 0 0 1 .67 1.44ZM111.59 9.54v10.71h6a1.56 1.56 0 0 1 1.11.35 1.19 1.19 0 0 1 .39.89 1.12 1.12 0 0 1-.38.87 1.7 1.7 0 0 1-1 .33h-7.19a1.56 1.56 0 0 1-1.83-1.24 1.47 1.47 0 0 1 0-.59V9.54a1.92 1.92 0 0 1 .41-1.35 1.32 1.32 0 0 1 1.07-.45 1.43 1.43 0 0 1 1.09.44 2 2 0 0 1 .33 1.36ZM121.78 21.13v-4.66l-3.59-5.57a8.69 8.69 0 0 1-.67-1.18 1.74 1.74 0 0 1-.2-.73 1.11 1.11 0 0 1 .4-.88 1.32 1.32 0 0 1 1-.37 1.17 1.17 0 0 1 .93.34 10.16 10.16 0 0 1 .94 1.38l2.75 4.47 2.78-4.47.43-.69a2.8 2.8 0 0 1 .37-.53 1.28 1.28 0 0 1 .46-.37 1.14 1.14 0 0 1 .61-.13 1.26 1.26 0 0 1 .94.36 1.2 1.2 0 0 1 .38.85 2 2 0 0 1-.2.78 9.22 9.22 0 0 1-.65 1.09l-3.68 5.65v4.66a2 2 0 0 1-.42 1.37 1.47 1.47 0 0 1-1.08.45 1.38 1.38 0 0 1-1.07-.45 2 2 0 0 1-.43-1.37Z"/><rect class="cls-1" x="31.37" y="30.95" width="25.59" height="25.59" rx="3.19"/><rect class="cls-2" x="1.77" y="1.51" width="38.54" height="38.54" rx="3.19"/><path class="cls-1" d="M36.75 41.33H4.58A4.59 4.59 0 0 1 0 36.74V4.58A4.59 4.59 0 0 1 4.58 0h32.17a4.59 4.59 0 0 1 4.58 4.58v32.16a4.59 4.59 0 0 1-4.58 4.59ZM4.58 2.79a1.8 1.8 0 0 0-1.79 1.79v32.16a1.8 1.8 0 0 0 1.79 1.8h32.17a1.8 1.8 0 0 0 1.79-1.8V4.58a1.8 1.8 0 0 0-1.79-1.79Z"/><path class="cls-1" d="M53.06 57.39H33.85a4.59 4.59 0 0 1-4.58-4.58V33.6a4.59 4.59 0 0 1 4.58-4.6h19.21a4.6 4.6 0 0 1 4.59 4.59v19.22a4.59 4.59 0 0 1-4.59 4.58ZM33.85 31.8a1.8 1.8 0 0 0-1.79 1.8v19.21a1.8 1.8 0 0 0 1.79 1.79h19.21a1.8 1.8 0 0 0 1.8-1.79V33.6a1.8 1.8 0 0 0-1.8-1.8Z"/><path class="cls-2" d="M37.15 42.66h11.24a.82.82 0 0 1 .82.82.82.82 0 0 1-.82.82H37.15a.82.82 0 0 1-.82-.82.81.81 0 0 1 .82-.82Z"/><path class="cls-2" d="M48.39 44.67H37.15a1.2 1.2 0 1 1 0-2.39h11.24a1.2 1.2 0 0 1 0 2.39ZM37.15 43a.45.45 0 1 0 0 .89h11.24a.45.45 0 0 0 0-.89Z"/><path class="cls-2" d="M43.23 49.58a.81.81 0 0 1 0-1.16l4.67-4.34a.83.83 0 0 0 0-1.16l-4.63-4.34a.81.81 0 0 1 0-1.16.8.8 0 0 1 1.15 0l6 5.54a.82.82 0 0 1 0 1.17l-6 5.54a.82.82 0 0 1-1.16 0s-.02-.08-.03-.09Z"/><path class="cls-2" d="M43.86 50.25a1.21 1.21 0 0 1-.84-.37v-.05a1.17 1.17 0 0 1-.34-.83 1.19 1.19 0 0 1 .35-.85l4.68-4.35a.41.41 0 0 0 .14-.31.43.43 0 0 0-.12-.32L43 38.81a1.2 1.2 0 1 1 1.68-1.7l6 5.53a1.22 1.22 0 0 1 .38.85 1.26 1.26 0 0 1-.34.86l-6 5.58a1.17 1.17 0 0 1-.86.32Zm0-12.74a.46.46 0 0 0-.32.13.48.48 0 0 0-.13.32.46.46 0 0 0 .13.31l4.62 4.33a1.23 1.23 0 0 1 .38.92 1.19 1.19 0 0 1-.38.83l-4.67 4.34a.48.48 0 0 0-.12.31.46.46 0 0 0 .13.31l-.29.23.31-.21a.41.41 0 0 0 .31.14.47.47 0 0 0 .32-.12l6-5.54a.49.49 0 0 0 .14-.33.5.5 0 0 0-.14-.32l-6-5.54a.47.47 0 0 0-.32-.14Z"/><path class="cls-1" d="M9.35 10.2a1.4 1.4 0 0 1 1.8.81L18 28.92a1.39 1.39 0 0 1-.8 1.8 1.38 1.38 0 0 1-1.8-.81L8.54 12a1.41 1.41 0 0 1 .81-1.8Z"/><path class="cls-1" d="m15.42 29 4.41-11a1.38 1.38 0 0 1 1.81-.77 1.39 1.39 0 0 1 .77 1.8L18 30a1.4 1.4 0 0 1-2.6 0 1.35 1.35 0 0 1 .02-1Z"/><path class="cls-1" d="M18.11 10.52a1.41 1.41 0 0 1 1.81.81l6.84 17.91A1.39 1.39 0 0 1 26 31a1.38 1.38 0 0 1-1.8-.81l-6.85-17.9a1.4 1.4 0 0 1 .76-1.77Z"/><path class="cls-1" d="m24.19 29.26 4.4-11a1.39 1.39 0 0 1 1.82-.77 1.39 1.39 0 0 1 .77 1.8l-4.4 11a1.4 1.4 0 0 1-2.6 0 1.3 1.3 0 0 1 .01-1.03Z"/></svg>
