<svg width="24" height="28" viewBox="0 0 24 28" focusable="false" aria-hidden="true" xmlns="http://www.w3.org/2000/svg"><path fill-rule="evenodd" clip-rule="evenodd" d="M1.71429 0C2.16894 0 2.60498 0.184374 2.92647 0.512563C3.24796 0.840752 3.42857 1.28587 3.42857 1.75V5.42675C4.85493 3.94148 6.62817 2.85129 8.58127 2.25887C10.5344 1.66645 12.6031 1.59131 14.5925 2.04051C16.5819 2.48971 18.4266 3.44848 19.9527 4.8265C21.4789 6.20452 22.6363 7.95644 23.316 9.91725C23.3985 10.1356 23.4372 10.3686 23.4299 10.6024C23.4226 10.8363 23.3695 11.0663 23.2736 11.2789C23.1777 11.4914 23.041 11.6821 22.8717 11.8398C22.7023 11.9975 22.5037 12.1189 22.2876 12.1968C22.0715 12.2748 21.8422 12.3077 21.6134 12.2936C21.3846 12.2796 21.1609 12.2188 20.9555 12.1149C20.7501 12.0111 20.5672 11.8662 20.4176 11.6889C20.268 11.5116 20.1548 11.3055 20.0846 11.0828C19.5671 9.58968 18.6625 8.2679 17.4672 7.25826C16.2718 6.24862 14.8306 5.58895 13.297 5.34954C11.7633 5.11014 10.1948 5.29996 8.75856 5.8988C7.32229 6.49763 6.07207 7.48303 5.14114 8.75H10.2857C10.7404 8.75 11.1764 8.93437 11.4979 9.26256C11.8194 9.59075 12 10.0359 12 10.5C12 10.9641 11.8194 11.4092 11.4979 11.7374C11.1764 12.0656 10.7404 12.25 10.2857 12.25H1.71429C1.25963 12.25 0.823593 12.0656 0.502103 11.7374C0.180612 11.4092 0 10.9641 0 10.5V1.75C0 1.28587 0.180612 0.840752 0.502103 0.512563C0.823593 0.184374 1.25963 0 1.71429 0ZM1.728 15.8498C1.94029 15.7732 2.16527 15.7401 2.3901 15.7523C2.61492 15.7645 2.83518 15.8219 3.03831 15.921C3.24144 16.0201 3.42344 16.1591 3.57394 16.3301C3.72444 16.501 3.84048 16.7005 3.91543 16.9172C4.43291 18.4103 5.33751 19.7321 6.53283 20.7417C7.72816 21.7514 9.16942 22.4111 10.703 22.6505C12.2367 22.8899 13.8052 22.7 15.2414 22.1012C16.6777 21.5024 17.9279 20.517 18.8589 19.25H13.7143C13.2596 19.25 12.8236 19.0656 12.5021 18.7374C12.1806 18.4092 12 17.9641 12 17.5C12 17.0359 12.1806 16.5908 12.5021 16.2626C12.8236 15.9344 13.2596 15.75 13.7143 15.75H22.2857C22.7404 15.75 23.1764 15.9344 23.4979 16.2626C23.8194 16.5908 24 17.0359 24 17.5V26.25C24 26.7141 23.8194 27.1593 23.4979 27.4874C23.1764 27.8156 22.7404 28 22.2857 28C21.8311 28 21.395 27.8156 21.0735 27.4874C20.752 27.1593 20.5714 26.7141 20.5714 26.25V22.5732C19.1451 24.0585 17.3718 25.1487 15.4187 25.7411C13.4656 26.3335 11.3969 26.4087 9.40752 25.9595C7.4181 25.5103 5.57344 24.5515 4.04727 23.1735C2.52111 21.7955 1.36368 20.0436 0.684 18.0828C0.609018 17.866 0.576587 17.6364 0.588561 17.4069C0.600534 17.1774 0.656676 16.9525 0.753781 16.7451C0.850887 16.5378 0.987054 16.352 1.15451 16.1984C1.32196 16.0447 1.5157 15.9263 1.728 15.8498Z" fill="currentColor" /></svg>
