<svg viewBox="0 0 28 38" fill="none" xmlns="http://www.w3.org/2000/svg" focusable="false" aria-hidden="true"><path fill-rule="evenodd" clip-rule="evenodd" d="M12.374.849a2 2 0 012.829 0l8.263 8.262a2 2 0 11-2.829 2.829L15.79 7.09v19.96a2 2 0 01-4 0V7.091L6.94 11.94A2 2 0 014.112 9.11L12.374.85zM2.428 27.117a2 2 0 012 2 4.197 4.197 0 004.197 4.197h10.329a4.197 4.197 0 004.197-4.197 2 2 0 114 0 8.197 8.197 0 01-8.197 8.197H8.624a8.197 8.197 0 01-8.197-8.197 2 2 0 012-2z" fill="currentColor"/></svg>
