<svg xmlns="http://www.w3.org/2000/svg" viewBox="0 0 294 6"><g stroke="currentColor"><path d="M147.35 3.28a.66.66 0 01-.74 0 9.24 9.24 0 00-11.43 0 11.94 11.94 0 01-6.45 2.22 12.29 12.29 0 01-6.57-2.34 10.73 10.73 0 00-5.54-1.86 10.9 10.9 0 00-5.71 2 12 12 0 01-6.45 2.22A11.86 11.86 0 0198 3.28a11.12 11.12 0 00-5.72-2 10.9 10.9 0 00-5.71 2A12.14 12.14 0 0180.1 5.5a12 12 0 01-6.45-2.22.34.34 0 010-.56.66.66 0 01.74 0 11 11 0 005.71 2 11 11 0 005.72-2A12.09 12.09 0 0192.29.5a11.86 11.86 0 016.45 2.22 10.9 10.9 0 005.72 2 10.94 10.94 0 005.71-2A12 12 0 01116.62.5a11.9 11.9 0 016.45 2.22c.05 0 3.07 2 5.64 2a10.9 10.9 0 005.71-2A12 12 0 01140.87.5a11.86 11.86 0 016.45 2.22.32.32 0 01.03.56z"/><path d="M74.35 3.28a.66.66 0 01-.74 0 10.9 10.9 0 00-5.71-2 11 11 0 00-5.72 2 11.94 11.94 0 01-6.45 2.22 12.29 12.29 0 01-6.57-2.34 10.73 10.73 0 00-5.54-1.86 10.9 10.9 0 00-5.71 2 12 12 0 01-6.45 2.2A11.86 11.86 0 0125 3.28a11.12 11.12 0 00-5.72-2 10.9 10.9 0 00-5.71 2A12.14 12.14 0 017.1 5.5 12 12 0 01.65 3.28a.34.34 0 010-.56.66.66 0 01.74 0 11 11 0 005.71 2 11 11 0 005.72-2A12.09 12.09 0 0119.29.5a11.86 11.86 0 016.45 2.22 10.9 10.9 0 005.72 2 10.94 10.94 0 005.71-2A12 12 0 0143.62.5a11.9 11.9 0 016.45 2.22s3.07 2 5.64 2a10.9 10.9 0 005.71-2A12 12 0 0167.87.5a11.86 11.86 0 016.45 2.22.32.32 0 01.03.56zM293.35 3.28a.66.66 0 01-.74 0 9.24 9.24 0 00-11.43 0 11.94 11.94 0 01-6.45 2.22 12.29 12.29 0 01-6.57-2.34 10.73 10.73 0 00-5.54-1.86 10.9 10.9 0 00-5.71 2 12 12 0 01-6.45 2.22A11.86 11.86 0 01244 3.28a11.12 11.12 0 00-5.72-2 10.9 10.9 0 00-5.71 2 12.14 12.14 0 01-6.47 2.22 12 12 0 01-6.45-2.22.34.34 0 010-.56.66.66 0 01.74 0 11 11 0 005.71 2 11 11 0 005.72-2A12.09 12.09 0 01238.29.5a11.86 11.86 0 016.45 2.22 10.9 10.9 0 005.72 2 10.94 10.94 0 005.71-2A12 12 0 01262.62.5a11.9 11.9 0 016.45 2.22c.05 0 3.07 2 5.64 2a10.9 10.9 0 005.71-2A12 12 0 01286.87.5a11.86 11.86 0 016.45 2.22.32.32 0 01.03.56z"/><path d="M220.35 3.28a.66.66 0 01-.74 0 9.24 9.24 0 00-11.43 0 11.94 11.94 0 01-6.45 2.22 12.29 12.29 0 01-6.57-2.34 10.73 10.73 0 00-5.54-1.86 10.9 10.9 0 00-5.71 2 12 12 0 01-6.45 2.22A11.86 11.86 0 01171 3.28a11.12 11.12 0 00-5.72-2 10.9 10.9 0 00-5.71 2 12.14 12.14 0 01-6.47 2.22 12 12 0 01-6.45-2.22.34.34 0 010-.56.66.66 0 01.74 0 11 11 0 005.71 2 11 11 0 005.72-2A12.09 12.09 0 01165.29.5a11.86 11.86 0 016.45 2.22 10.9 10.9 0 005.72 2 10.94 10.94 0 005.71-2A12 12 0 01189.62.5a11.9 11.9 0 016.45 2.22c.05 0 3.07 2 5.64 2a10.9 10.9 0 005.71-2A12 12 0 01213.87.5a11.86 11.86 0 016.45 2.22.32.32 0 01.03.56z"/></g></svg>
