<svg viewBox="0 0 187 6" xmlns="http://www.w3.org/2000/svg"><g fill="#000" fill-rule="nonzero"><path d="M37.4 0c-1.7 0-2.6 1.5-3.2 2.5-.6 1-1 1.5-1.5 1.5s-.8-.4-1.5-1.5C30.6 1.4 29.8 0 28.1 0c-1.7 0-2.5 1.4-3.2 2.5C24.3 3.6 24 4 23.5 4c-.5 0-.9-.5-1.5-1.5S20.5 0 18.8 0h-.1v2h.1c.5 0 .9.5 1.5 1.5S21.8 6 23.5 6c1.7 0 2.6-1.4 3.2-2.5.6-1 .9-1.5 1.4-1.5.5 0 .8.5 1.4 1.5C30.1 4.6 31 6 32.7 6c1.7 0 2.6-1.5 3.2-2.5.6-1 .9-1.5 1.5-1.5V0zM18.7 0c-1.7 0-2.6 1.5-3.2 2.5-.6 1-1 1.5-1.5 1.5s-.8-.4-1.5-1.5C11.9 1.4 11.1 0 9.4 0 7.7 0 6.8 1.4 6.2 2.5 5.6 3.6 5.3 4 4.8 4c-.6 0-.9-.5-1.5-1.5S1.8 0 .1 0H0v2h.1c.5 0 .9.5 1.5 1.5C2.1 4.5 3 6 4.8 6 6.6 6 7.3 4.6 8 3.5c.6-1 .9-1.5 1.4-1.5.5 0 .8.5 1.4 1.5C11.4 4.6 12.3 6 14 6c1.7 0 2.6-1.5 3.2-2.5.6-1 .9-1.5 1.5-1.5V0z"/><path d="M56.1 0c-1.7 0-2.6 1.5-3.2 2.5-.6 1-1 1.5-1.5 1.5s-.8-.4-1.5-1.5C49.4 1.4 48.5 0 46.8 0c-1.7 0-2.5 1.4-3.2 2.5C43 3.6 42.7 4 42.2 4c-.5 0-.9-.5-1.5-1.5S39.2 0 37.5 0h-.1v2h.1c.5 0 .9.5 1.5 1.5S40.5 6 42.2 6c1.7 0 2.6-1.4 3.2-2.5.6-1 .9-1.5 1.4-1.5.5 0 .8.5 1.4 1.5.6 1.1 1.5 2.5 3.2 2.5 1.7 0 2.6-1.5 3.2-2.5.6-1 .9-1.5 1.5-1.5V0z"/><path d="M74.8 0c-1.7 0-2.6 1.5-3.2 2.5-.6 1-1 1.5-1.5 1.5s-.8-.4-1.5-1.5C68.1 1.4 67.2 0 65.5 0c-1.7 0-2.5 1.4-3.2 2.5-.6 1.1-.9 1.5-1.4 1.5-.5 0-.9-.5-1.5-1.5S58 0 56.2 0h-.1v2h.1c.5 0 .9.5 1.5 1.5S59.2 6 60.9 6c1.7 0 2.6-1.4 3.2-2.5.6-1 .9-1.5 1.4-1.5.5 0 .8.5 1.4 1.5.7 1.1 1.5 2.5 3.2 2.5 1.7 0 2.6-1.5 3.2-2.5.6-1 .9-1.5 1.5-1.5V0zM93.5 0c-1.7 0-2.6 1.5-3.2 2.5-.6 1-1 1.5-1.5 1.5s-.8-.4-1.5-1.5C86.8 1.4 85.9 0 84.2 0c-1.7 0-2.5 1.4-3.2 2.5-.6 1.1-.9 1.5-1.4 1.5-.5 0-.9-.5-1.5-1.5S76.7 0 74.9 0h-.1v2h.1c.5 0 .9.5 1.5 1.5S77.9 6 79.6 6c1.7 0 2.6-1.4 3.2-2.5.6-1 .9-1.5 1.4-1.5.5 0 .8.5 1.4 1.5.7 1.1 1.5 2.5 3.2 2.5 1.7 0 2.6-1.5 3.2-2.5.6-1 .9-1.5 1.5-1.5V0zM130.9 0c-1.7 0-2.6 1.5-3.2 2.5-.6 1-1 1.5-1.5 1.5s-.8-.4-1.5-1.5c-.6-1.1-1.4-2.5-3.1-2.5-1.7 0-2.5 1.4-3.2 2.5-.6 1.1-.9 1.5-1.4 1.5-.5 0-.9-.5-1.5-1.5S114 0 112.3 0h-.1v2h.1c.5 0 .9.5 1.5 1.5S115.3 6 117 6c1.7 0 2.6-1.4 3.2-2.5.6-1 .9-1.5 1.4-1.5.5 0 .8.5 1.4 1.5.6 1.1 1.5 2.5 3.2 2.5 1.7 0 2.6-1.5 3.2-2.5.6-1 .9-1.5 1.5-1.5V0z"/><path d="M112.2 0c-1.7 0-2.6 1.5-3.2 2.5-.6 1-1 1.5-1.5 1.5s-.8-.4-1.5-1.5c-.6-1.1-1.4-2.5-3.1-2.5-1.7 0-2.6 1.4-3.2 2.5-.6 1.1-.9 1.5-1.4 1.5-.6 0-.9-.5-1.5-1.5S95.3 0 93.6 0h-.1v2h.1c.5 0 .9.5 1.5 1.5.5 1 1.4 2.5 3.2 2.5 1.8 0 2.5-1.4 3.2-2.5.6-1 .9-1.5 1.4-1.5.5 0 .8.5 1.4 1.5.6 1.1 1.5 2.5 3.2 2.5 1.7 0 2.6-1.5 3.2-2.5.6-1 .9-1.5 1.5-1.5V0zM149.6 0c-1.7 0-2.6 1.5-3.2 2.5-.6 1-1 1.5-1.5 1.5s-.8-.4-1.5-1.5c-.5-1.1-1.4-2.5-3.1-2.5-1.7 0-2.5 1.4-3.2 2.5-.6 1.1-.9 1.5-1.4 1.5-.5 0-.9-.5-1.5-1.5S132.7 0 131 0h-.1v2h.1c.5 0 .9.5 1.5 1.5S134 6 135.7 6c1.7 0 2.6-1.4 3.2-2.5.6-1 .9-1.5 1.4-1.5.5 0 .8.5 1.4 1.5.6 1.1 1.5 2.5 3.2 2.5 1.7 0 2.6-1.5 3.2-2.5.6-1 .9-1.5 1.5-1.5V0zM168.3 0c-1.7 0-2.6 1.5-3.2 2.5-.6 1-1 1.5-1.5 1.5s-.8-.4-1.5-1.5c-.5-1.1-1.4-2.5-3.1-2.5-1.7 0-2.5 1.4-3.2 2.5-.6 1.1-.9 1.5-1.4 1.5-.5 0-.9-.5-1.5-1.5S151.5 0 149.7 0h-.1v2h.1c.5 0 .9.5 1.5 1.5s1.5 2.5 3.2 2.5c1.7 0 2.6-1.4 3.2-2.5.6-1 .9-1.5 1.4-1.5.5 0 .8.5 1.4 1.5.7 1.1 1.5 2.5 3.2 2.5 1.7 0 2.6-1.5 3.2-2.5.6-1 .9-1.5 1.5-1.5V0zM187 0c-1.7 0-2.6 1.5-3.2 2.5-.6 1-1 1.5-1.5 1.5s-.8-.4-1.5-1.5c-.5-1.1-1.4-2.5-3.1-2.5-1.7 0-2.5 1.4-3.2 2.5-.6 1.1-.9 1.5-1.4 1.5-.5 0-.9-.5-1.5-1.5S170.2 0 168.4 0h-.1v2h.1c.5 0 .9.5 1.5 1.5s1.5 2.5 3.2 2.5c1.7 0 2.6-1.4 3.2-2.5.6-1 .9-1.5 1.4-1.5.5 0 .8.5 1.4 1.5.7 1.1 1.5 2.5 3.2 2.5 1.7 0 2.6-1.5 3.2-2.5.6-1 .9-1.5 1.5-1.5V0z"/></g></svg>
