<svg xmlns="http://www.w3.org/2000/svg" viewBox="0 0 57.65 57.39"><defs><style>.cls-1{fill:#30454f}.cls-2{fill:#cce5e2}.cls-3{fill:#fff}</style></defs><rect class="cls-1" x="31.36" y="30.94" width="25.59" height="25.59" rx="3.19"/><rect class="cls-2" x="1.76" y="1.5" width="38.54" height="38.54" rx="3.19"/><path class="cls-1" d="M36.75 41.33H4.58A4.59 4.59 0 0 1 0 36.75V4.58A4.59 4.59 0 0 1 4.58 0h32.17a4.59 4.59 0 0 1 4.58 4.58v32.17a4.59 4.59 0 0 1-4.58 4.58ZM4.58 2.79a1.8 1.8 0 0 0-1.79 1.79v32.17a1.8 1.8 0 0 0 1.79 1.79h32.17a1.8 1.8 0 0 0 1.79-1.79V4.58a1.8 1.8 0 0 0-1.79-1.79Z"/><path class="cls-1" d="M53.06 57.39H33.85a4.59 4.59 0 0 1-4.58-4.59V33.59A4.59 4.59 0 0 1 33.85 29h19.21a4.59 4.59 0 0 1 4.59 4.58V52.8a4.6 4.6 0 0 1-4.59 4.59ZM33.85 31.8a1.8 1.8 0 0 0-1.79 1.79V52.8a1.8 1.8 0 0 0 1.79 1.8h19.21a1.81 1.81 0 0 0 1.8-1.8V33.59a1.8 1.8 0 0 0-1.8-1.79Z"/><path class="cls-3" d="M37.14 42.65h11.24a.82.82 0 0 1 .82.82.81.81 0 0 1-.82.82H37.14a.82.82 0 0 1-.82-.82.82.82 0 0 1 .82-.82Z"/><path class="cls-3" d="M48.38 44.67H37.14a1.2 1.2 0 0 1 0-2.39h11.24a1.2 1.2 0 1 1 0 2.39ZM37.14 43a.45.45 0 0 0 0 .89h11.24a.45.45 0 1 0 0-.89Z"/><path class="cls-3" d="M43.22 49.57a.81.81 0 0 1 0-1.15l4.67-4.34a.81.81 0 0 0 0-1.15v-.05l-4.67-4.34a.81.81 0 0 1 0-1.15.82.82 0 0 1 1.16 0l5.95 5.54a.82.82 0 0 1 .05 1.16h-.05l-5.95 5.54a.81.81 0 0 1-1.15-.07Z"/><path class="cls-3" d="M43.84 50.23a1.17 1.17 0 0 1-.89-.4 1.2 1.2 0 0 1 0-1.68l4.68-4.35a.41.41 0 0 0 .14-.31.43.43 0 0 0-.12-.32L43 38.81a1.2 1.2 0 1 1 1.68-1.7l5.94 5.53a1.2 1.2 0 0 1 .06 1.69l-6 5.6a1.23 1.23 0 0 1-.84.3Zm0-12.72a.43.43 0 0 0-.31.13.45.45 0 0 0 0 .63l4.73 4.4a1.18 1.18 0 0 1 .31.85 1.19 1.19 0 0 1-.38.83l-4.67 4.34a.45.45 0 0 0 0 .62.45.45 0 0 0 .65.06l5.94-5.53a.45.45 0 0 0 0-.65l-5.95-5.54a.47.47 0 0 0-.36-.14Z"/><path class="cls-1" d="M9.35 10.2a1.4 1.4 0 0 1 1.8.81L18 28.92a1.4 1.4 0 0 1-.81 1.8 1.39 1.39 0 0 1-1.8-.81L8.55 12a1.4 1.4 0 0 1 .8-1.8Z"/><path class="cls-1" d="m15.41 29 4.41-11a1.4 1.4 0 0 1 1.81-.77 1.38 1.38 0 0 1 .78 1.77L18 30a1.4 1.4 0 0 1-1.81.79 1.46 1.46 0 0 1-.79-.79 1.49 1.49 0 0 1 .01-1Z"/><path class="cls-1" d="M18.11 10.52a1.4 1.4 0 0 1 1.8.81l6.84 17.91A1.39 1.39 0 0 1 26 31a1.38 1.38 0 0 1-1.8-.81l-6.9-17.86a1.41 1.41 0 0 1 .81-1.81Z"/><path class="cls-1" d="m24.17 29.25 4.41-11a1.4 1.4 0 0 1 1.81-.77 1.39 1.39 0 0 1 .8 1.8l-4.4 11a1.4 1.4 0 0 1-1.79.82 1.46 1.46 0 0 1-.79-.79 1.39 1.39 0 0 1-.04-1.06Z"/></svg>
